<svg id="Layer_1" enable-background="new 0 0 512 512" height="512" viewBox="0 0 512 512" width="512" xmlns="http://www.w3.org/2000/svg"><path d="m486.057 130.428h-105.525c70.033-33.746 75.676-68.885 74.023-84.498-2.592-24.475-25.634-42.784-57.337-45.563-28.512-2.503-58.49 7.362-84.422 27.768-23.462 18.459-42.772 45.156-56.796 78.249-14.025-33.093-33.335-59.79-56.797-78.249-25.932-20.405-55.915-30.265-84.423-27.768-31.703 2.779-54.745 21.089-57.336 45.563-1.654 15.613 3.99 50.752 74.022 84.498h-105.523c-6.627 0-12 5.373-12 12v98.176c0 6.627 5.373 12 12 12h3.85v247.396c0 6.627 5.373 12 12 12h428.414c6.627 0 12-5.373 12-12v-247.396h3.85c6.627 0 12-5.373 12-12v-98.176c0-6.627-5.373-12-12-12zm-192.969 357.572h-74.176v-333.572h74.176zm102.035-463.725c19.926 1.746 34.219 11.464 35.566 24.182 2.164 20.434-27.206 54.082-116.868 81.971h-41.393c27.54-78.183 80.393-109.854 122.695-106.153zm-313.813 24.182c1.347-12.718 15.64-22.436 35.566-24.182 42.301-3.721 95.156 27.967 122.696 106.152h-41.395c-89.661-27.888-119.031-61.536-116.867-81.97zm-43.367 180.147v-74.176h156.969v74.176h-153.119zm15.85 24h141.119v235.396h-141.119zm263.295 235.396v-235.396h141.119v235.396zm156.969-259.396h-3.85-153.119v-74.176h156.969z"/></svg>