<svg xmlns="http://www.w3.org/2000/svg" version="1.1" xmlns:xlink="http://www.w3.org/1999/xlink" width="512" height="512" x="0" y="0" viewBox="0 0 512.001 512.001" style="enable-background:new 0 0 512 512" xml:space="preserve" class=""><g><path d="M375 160c-5.51 0-10 4.49-10 10s4.49 10 10 10 10-4.49 10-10-4.49-10-10-10zM137 160h-26c-5.51 0-10 4.49-10 10s4.49 10 10 10h26c5.51 0 10-4.49 10-10s-4.49-10-10-10zM71 160c-5.521 0-10 4.49-10 10s4.479 10 10 10c5.51 0 10-4.49 10-10s-4.49-10-10-10zM268.331 160c-5.511 0-10 4.49-10 10s4.489 10 10 10c5.52 0 10-4.49 10-10s-4.48-10-10-10z" fill="#ffffff" opacity="1" data-original="#000000" class=""></path><path d="M509.99 124.005C509.994 124.003 420 4 420 4a9.999 9.999 0 0 0-8-4H100a9.999 9.999 0 0 0-8 4S2.008 124.003 2.011 124.004A9.95 9.95 0 0 0 0 130v80c0 2.455.888 4.7 2.356 6.441-.001.001 245.996 292.003 245.996 292.003a9.998 9.998 0 0 0 15.294 0s245.998-292.002 245.996-292.003A9.947 9.947 0 0 0 512 210v-80a9.939 9.939 0 0 0-2.01-5.995zm-96.709-95.631L482 120H353.47l59.811-91.626zM394.864 20 335 111.706 275.138 20h119.726zm-86.533 160H325v20H188.333v-60H325v20h-16.67c-5.511 0-10 4.49-10 10s4.49 10 10.001 10zm8.2-60H196.803l59.864-91.706L316.531 120zM238.198 20l-59.864 91.706L118.471 20h119.727zM99.432 27.424 159.864 120H30l69.432-92.576zM20 140h148.333v60H20v-60zm11.5 80h138.495L234.7 461.197 31.5 220zM256 463.405 190.703 220h130.596L256 463.405zm21.299-2.208L342.005 220H480.5L277.299 461.197zM492 160h-77c-5.51 0-10 4.49-10 10s4.49 10 10 10h77v20H345v-60h147v20z" fill="#ffffff" opacity="1" data-original="#000000" class=""></path></g></svg>